# xmcd
#
# Track frame offsets: 
#        150
#        4425
#        25500
#        41850
#        51450
#        65475
#        84750
#        106125
#        125925
#        140325
#        146400
#        167342
#        181936
#        197799
#
# Disc length: 2801 seconds
#
# Revision: 0
# Processed by: cddbd v1.4PL0 Copyright (c) Steve Scherf et al.
# Submitted via: ExactAudioCopy v0.95a3
#
DISCID=bf0aef0e
DTITLE=Steve Marriott and The Official Receivers - Steve Marriott and 
DTITLE=The Official Receivers Studio Sessions 1987-1988
DYEAR=1999
DGENRE=Blues
TTITLE0=Law Of The Jungle
TTITLE1=Oh Well
TTITLE2=I Need A Love
TTITLE3=Lonely No More
TTITLE4=I Never Loved A Woman
TTITLE5=Stay With Me Baby
TTITLE6=I Just Wanna Make Love To You
TTITLE7=Ain't You Glad (New York Can't Talk)
TTITLE8=Shakin' All Over
TTITLE9=Toe Rag
TTITLE10=Watch Your Step DT's live
TTITLE11=Let's Work Together DT's live
TTITLE12=Afterglow OR live
TTITLE13=If I Were A Carpenter OR live
EXTD=
EXTT0=
EXTT1=
EXTT2=
EXTT3=
EXTT4=
EXTT5=
EXTT6=
EXTT7=
EXTT8=
EXTT9=
EXTT10=
EXTT11=
EXTT12=
EXTT13=
PLAYORDER=
